<?xml version="1.0"?>
<!DOCTYPE svg PUBLIC "-//W3C//DTD SVG 1.1//EN" "http://www.w3.org/Graphics/SVG/1.1/DTD/svg11.dtd">
<svg width="277.4774073544806mm" height="139.28956501645246mm" viewBox="0 0 277.4774073544806 139.28956501645246" xmlns="http://www.w3.org/2000/svg" version="1.1">
<g id="Sketch" transform="translate(105.380103,100.973367) scale(1,-1)">
<path id="Sketch_w0000"  d="M -102.65973587694177 98.25300074050699 L 57.34026412305823 98.25300074050699 L 57.34026412305823 -21.74699925949301 L -102.65973587694177 -21.74699925949301 L -102.65973587694177 98.25300074050699 " stroke="#000000" stroke-width="0.35 px" style="stroke-width:0.35;stroke-miterlimit:4;stroke-dasharray:none;stroke-linecap:square;fill:none;fill-opacity:1;fill-rule: evenodd"/>
<path id="Sketch_w0001"  d="M 96.70002817226943 -9.658822 L 96.70002817226943 -35.59583079840663 L 71.70002817226943 -35.59583079840663 L 71.70002817226943 -9.595830798406631 L 76.70002817226943 -9.595830798406631 L 76.70002817226943 4.341177999999999 L 91.70002817226943 4.341177999999999 L 91.70002817226943 -9.658822 L 96.70002817226943 -9.658822 " stroke="#000000" stroke-width="0.35 px" style="stroke-width:0.35;stroke-miterlimit:4;stroke-dasharray:none;stroke-linecap:square;fill:none;fill-opacity:1;fill-rule: evenodd"/>
<path id="Sketch_w0002"  d="M 79.20002817226943 -3.7588220000000008 L 89.20002817226943 -3.7588220000000008 L 89.20002817226943 -6.658822000000001 L 79.20002817226943 -6.658822000000001 L 79.20002817226943 -3.7588220000000008 " stroke="#000000" stroke-width="0.35 px" style="stroke-width:0.35;stroke-miterlimit:4;stroke-dasharray:none;stroke-linecap:square;fill:none;fill-opacity:1;fill-rule: evenodd"/>
<path id="Sketch_w0003"  d="M 32.540264123058236 1.1530007405069942 L 47.34026412305823 1.1530007405069942 L 47.34026412305823 -1.7469992594930057 L 32.540264123058236 -1.7469992594930057 L 32.540264123058236 1.1530007405069942 " stroke="#000000" stroke-width="0.35 px" style="stroke-width:0.35;stroke-miterlimit:4;stroke-dasharray:none;stroke-linecap:square;fill:none;fill-opacity:1;fill-rule: evenodd"/>
<path id="Sketch_w0004"  d="M 32.440264123058235 78.25300074050699 L 47.34026412305823 78.25300074050699 L 47.34026412305823 75.35300074050699 L 32.440264123058235 75.35300074050699 L 32.440264123058235 78.25300074050699 " stroke="#000000" stroke-width="0.35 px" style="stroke-width:0.35;stroke-miterlimit:4;stroke-dasharray:none;stroke-linecap:square;fill:none;fill-opacity:1;fill-rule: evenodd"/>
<path id="Sketch_w0005"  d="M 96.99394217226941 82.70766 L 96.99394217226941 56.770651201593374 L 71.99394217226941 56.770651201593374 L 71.99394217226941 82.77065120159338 L 76.99394217226941 82.77065120159338 L 76.99394217226941 96.70766 L 91.99394217226941 96.70766 L 91.99394217226941 82.70766 L 96.99394217226941 82.70766 " stroke="#000000" stroke-width="0.35 px" style="stroke-width:0.35;stroke-miterlimit:4;stroke-dasharray:none;stroke-linecap:square;fill:none;fill-opacity:1;fill-rule: evenodd"/>
<path id="Sketch_w0006"  d="M 79.49394217226941 88.60766000000001 L 89.49394217226941 88.60766000000001 L 89.49394217226941 85.70766 L 79.49394217226941 85.70766 L 79.49394217226941 88.60766000000001 " stroke="#000000" stroke-width="0.35 px" style="stroke-width:0.35;stroke-miterlimit:4;stroke-dasharray:none;stroke-linecap:square;fill:none;fill-opacity:1;fill-rule: evenodd"/>
<path id="Sketch_w0007"  d="M 78.41748228752539 45.1706308752538 L 88.41748228752539 45.1706308752538 L 88.41748228752539 35.1706308752538 L 78.41748228752539 35.1706308752538 L 78.41748228752539 45.1706308752538 " stroke="#000000" stroke-width="0.35 px" style="stroke-width:0.35;stroke-miterlimit:4;stroke-dasharray:none;stroke-linecap:square;fill:none;fill-opacity:1;fill-rule: evenodd"/>
<path id="Sketch_w0008"  d="M 79.69515228752539 25.7835598752538 L 89.69515228752539 25.7835598752538 L 89.69515228752539 15.7835598752538 L 79.69515228752539 15.7835598752538 L 79.69515228752539 25.7835598752538 " stroke="#000000" stroke-width="0.35 px" style="stroke-width:0.35;stroke-miterlimit:4;stroke-dasharray:none;stroke-linecap:square;fill:none;fill-opacity:1;fill-rule: evenodd"/>
<path id="Sketch_w0009"  d="M 141.876938 26.84679370384282 L 141.876938 11.84679370384282 L 156.876938 11.84679370384282 L 156.876938 26.846794 L 159.376938 26.846794 L 159.376938 54.846794 L 169.376938 54.846794 L 169.376938 94.846794 L 129.376938 94.846794 L 129.376938 54.846794 L 139.376938 54.846794 L 139.376938 26.84679370384282 L 141.876938 26.846794 " stroke="#000000" stroke-width="0.35 px" style="stroke-width:0.35;stroke-miterlimit:4;stroke-dasharray:none;stroke-linecap:square;fill:none;fill-opacity:1;fill-rule: evenodd"/>
<path id="Sketch_w0010"  d="M 39.36581431763283 44.9553028752538 L 42.26581431763283 44.9553028752538 L 42.26581431763283 30.0553028752538 L 39.36581431763283 30.0553028752538 L 39.36581431763283 44.9553028752538 " stroke="#000000" stroke-width="0.35 px" style="stroke-width:0.35;stroke-miterlimit:4;stroke-dasharray:none;stroke-linecap:square;fill:none;fill-opacity:1;fill-rule: evenodd"/>
<title>b'Sketch'</title>
</g>
</svg>